<svg width="32" height="32" viewBox="0 0 32 32" fill="none" xmlns="http://www.w3.org/2000/svg">
<path d="M15.2576 0.403785C14.2336 0.15142 13.056 0 11.8272 0C6.34879 0 3.43039 2.22082 0.409592 6.25867L5.11999 9.99369C7.01439 7.7224 8.44799 6.41009 10.1888 6.05678V0.403785H15.2576Z" fill="#36A9E1"/>
<path d="M8.3968 26.6498L10.1888 24.9842C10.1888 24.9842 16.1792 19.836 18.1248 18.1199H16.1792L15.104 13.7792L22.1184 6.86435C22.0672 6.66246 22.016 6.51104 21.9648 6.35962H13.1072C14.592 6.86435 15.5136 8.12618 15.5136 9.99369C15.5136 12.5173 14.0288 14.1325 10.1888 17.2618L0 25.388V30.6372H13.824C11.6224 29.7287 9.8304 28.3155 8.3968 26.6498Z" fill="#36A9E1"/>
<path d="M23.552 13.0221L31.5392 5.55207V0.403809H15.2576C18.6368 1.21138 20.992 3.33125 21.9136 6.2587H22.5792L22.0672 6.76343C22.272 7.571 22.3744 8.42905 22.3744 9.38804C22.3744 13.0726 20.9408 15.4448 18.0736 18.0694H18.9952C22.9376 18.0694 25.1904 19.4827 25.1904 22.0568C25.1904 23.7729 24.2176 24.9842 22.6816 25.5395V30.6877H13.824C15.7696 31.4953 18.0224 32 20.6336 32C27.648 32 32 27.7098 32 21.8044C32 15.9495 27.8528 13.7287 23.552 13.0221Z" fill="#4A75B9"/>
<path d="M16.1792 18.0694H18.1248C20.992 15.4448 22.4256 13.0726 22.4256 9.38803C22.4256 8.47952 22.3232 7.62147 22.1184 6.76343L15.104 13.7287L16.1792 18.0694Z" fill="#2D2E83"/>
<path d="M22.7328 25.5395C22.1696 25.7413 21.504 25.8423 20.7872 25.8423C19.2 25.8423 17.8688 25.5395 16.64 24.8833H10.1888L8.3968 26.5489C9.8304 28.2145 11.6224 29.6278 13.8752 30.5868H22.7328V25.5395Z" fill="#2D2E83"/>
<path d="M15.2576 0.403809H10.24V6.10728C10.5984 6.00633 11.008 6.00633 11.4176 6.00633C12.032 6.00633 12.6464 6.10728 13.1584 6.30917H21.9648C20.992 3.28078 18.6368 1.21138 15.2576 0.403809Z" fill="#2D2E83"/>
</svg>
